<svg width="127" height="121" viewBox="0 0 127 121" fill="none" xmlns="http://www.w3.org/2000/svg">
<path d="M54.1588 32.5586C61.4589 37.5303 62.7308 41.0882 63.1857 43.4704C63.6383 45.8559 63.7491 49.631 58.7774 56.9311C58.5876 57.2097 58.0938 58.0176 58.9585 58.6065C59.8298 59.1999 60.3878 58.4357 60.5775 58.1571C65.5493 50.857 69.1061 49.5796 71.4915 49.1272C73.8737 48.6723 77.648 48.5561 84.9513 53.5301C85.2299 53.7198 86.0323 54.2288 86.6257 53.3576C87.2148 52.4926 86.4561 51.9198 86.1773 51.7299C78.874 46.7559 77.5977 43.2044 77.1461 40.8244C76.6958 38.4357 76.5771 34.6649 81.5491 27.3646C81.7388 27.086 82.2476 26.2838 81.3764 25.6904C80.5115 25.1014 79.9386 25.86 79.7488 26.1388C74.777 33.4389 71.2277 34.7119 68.8402 35.1679C66.4569 35.6172 62.685 35.7305 55.3847 30.7586C55.1061 30.5689 54.2971 30.0695 53.706 30.9375C53.117 31.8022 53.88 32.3687 54.1588 32.5586Z" fill="url(#paint0_linear_269_3353)"/>
<path d="M38.3179 55.1839C38.7128 54.6041 38.2027 54.2237 38.017 54.0972C33.1321 50.7703 32.2763 48.3917 31.9739 46.7978C31.6737 45.2006 31.5933 42.6749 34.9202 37.79C35.0467 37.6043 35.3853 37.0657 34.8023 36.6686C34.2256 36.2759 33.8421 36.7839 33.7156 36.9696C30.3887 41.8545 28.0122 42.7072 26.4162 43.0127C24.819 43.3128 22.2922 43.3877 17.4106 40.0631C17.2217 39.9347 16.6843 39.6014 16.2895 40.1812C15.8946 40.7609 16.4014 41.1391 16.5904 41.2678C21.4722 44.5926 22.3258 46.9745 22.6313 48.5705C22.9337 50.1644 23.0086 52.6912 19.6794 57.5794C19.5529 57.7651 19.2229 58.3047 19.7996 58.6974C20.3827 59.0945 20.7575 58.5855 20.884 58.3998C24.2132 53.5116 26.5951 52.658 28.189 52.3556C29.7851 52.05 32.3119 51.9751 37.1968 55.302C37.3825 55.4285 37.9209 55.7669 38.3179 55.1839Z" fill="url(#paint1_linear_269_3353)"/>
<path d="M91.0783 107.64C85.7674 104.022 84.8395 101.44 84.5073 99.7039C84.1837 97.9689 84.0981 95.2238 87.7151 89.9129C87.8525 89.7112 88.2238 89.1247 87.5895 88.6927C86.9585 88.2629 86.5454 88.821 86.408 89.0227C82.791 94.3336 80.2051 95.2592 78.4691 95.5915C76.732 95.9182 73.9858 95.9984 68.6812 92.3857C68.4762 92.2461 67.8909 91.8802 67.4589 92.5145C67.0292 93.1455 67.5839 93.5563 67.7889 93.6959C73.0934 97.3086 74.0224 99.8967 74.3546 101.633C74.6835 103.367 74.7671 106.115 71.1501 111.426C71.0104 111.631 70.6466 112.213 71.2778 112.643C71.9121 113.075 72.3176 112.521 72.4572 112.316C76.0742 107.005 78.6623 106.076 80.3928 105.745C82.1322 105.415 84.8751 105.333 90.186 108.95C90.391 109.089 90.9742 109.458 91.4083 108.821C91.836 108.193 91.2833 107.779 91.0783 107.64Z" fill="url(#paint2_linear_269_3353)"/>
<defs>
<linearGradient id="paint0_linear_269_3353" x1="63.8895" y1="23.1919" x2="79.1404" y2="59.9845" gradientUnits="userSpaceOnUse">
<stop stop-color="#F0DB92"/>
<stop offset="1" stop-color="#BF9033"/>
</linearGradient>
<linearGradient id="paint1_linear_269_3353" x1="23.1032" y1="34.9991" x2="33.3101" y2="59.6195" gradientUnits="userSpaceOnUse">
<stop stop-color="#F0DB92"/>
<stop offset="1" stop-color="#BF9033"/>
</linearGradient>
<linearGradient id="paint2_linear_269_3353" x1="74.869" y1="86.8769" x2="85.9668" y2="113.642" gradientUnits="userSpaceOnUse">
<stop stop-color="#F0DB92"/>
<stop offset="1" stop-color="#BF9033"/>
</linearGradient>
</defs>
</svg>
