<svg width="127" height="121" viewBox="0 0 127 121" fill="none" xmlns="http://www.w3.org/2000/svg">
<path d="M72.7479 32.5586C65.4479 37.5303 64.1759 41.0882 63.7211 43.4704C63.2685 45.8559 63.1576 49.631 68.1294 56.9311C68.3191 57.2097 68.813 58.0176 67.9482 58.6065C67.077 59.1999 66.519 58.4357 66.3292 58.1571C61.3574 50.857 57.8006 49.5796 55.4153 49.1272C53.033 48.6723 49.2588 48.5561 41.9555 53.5301C41.6769 53.7198 40.8744 54.2288 40.281 53.3576C39.692 52.4926 40.4506 51.9198 40.7294 51.7299C48.0328 46.7559 49.3091 43.2044 49.7606 40.8244C50.211 38.4357 50.3296 34.6649 45.3577 27.3646C45.1679 27.086 44.6591 26.2838 45.5304 25.6904C46.3953 25.1014 46.9681 25.86 47.158 26.1388C52.1298 33.4389 55.679 34.7119 58.0666 35.1679C60.4498 35.6172 64.2218 35.7305 71.522 30.7586C71.8006 30.5689 72.6096 30.0695 73.2008 30.9375C73.7897 31.8022 73.0267 32.3687 72.7479 32.5586Z" fill="url(#paint0_linear_269_3352)"/>
<path d="M88.5887 55.1839C88.1938 54.6041 88.7039 54.2237 88.8896 54.0972C93.7745 50.7703 94.6303 48.3917 94.9327 46.7978C95.2329 45.2006 95.3133 42.6749 91.9864 37.79C91.8599 37.6043 91.5213 37.0657 92.1043 36.6686C92.681 36.2759 93.0645 36.7839 93.191 36.9696C96.5179 41.8545 98.8944 42.7072 100.49 43.0127C102.088 43.3128 104.614 43.3877 109.496 40.0631C109.685 39.9347 110.222 39.6014 110.617 40.1812C111.012 40.7609 110.505 41.1391 110.316 41.2678C105.434 44.5926 104.581 46.9745 104.275 48.5705C103.973 50.1644 103.898 52.6912 107.227 57.5794C107.354 57.7651 107.684 58.3047 107.107 58.6974C106.524 59.0945 106.149 58.5855 106.023 58.3998C102.693 53.5116 100.312 52.658 98.7176 52.3556C97.1215 52.05 94.5947 51.9751 89.7098 55.302C89.5241 55.4285 88.9858 55.7669 88.5887 55.1839Z" fill="url(#paint1_linear_269_3352)"/>
<path d="M35.8282 107.64C41.1391 104.022 42.0669 101.44 42.3992 99.7039C42.7228 97.9689 42.8084 95.2238 39.1914 89.9129C39.054 89.7112 38.6827 89.1247 39.317 88.6927C39.948 88.2629 40.3611 88.821 40.4985 89.0227C44.1155 94.3336 46.7014 95.2592 48.4374 95.5915C50.1745 95.9182 52.9207 95.9984 58.2253 92.3857C58.4303 92.2461 59.0156 91.8802 59.4476 92.5145C59.8773 93.1455 59.3226 93.5563 59.1176 93.6959C53.8131 97.3086 52.8841 99.8967 52.5519 101.633C52.223 103.367 52.1394 106.115 55.7564 111.426C55.8961 111.631 56.2599 112.213 55.6287 112.643C54.9944 113.075 54.5889 112.521 54.4493 112.316C50.8323 107.005 48.2442 106.076 46.5137 105.745C44.7743 105.415 42.0314 105.333 36.7205 108.95C36.5155 109.089 35.9323 109.458 35.4982 108.821C35.0705 108.193 35.6232 107.779 35.8282 107.64Z" fill="url(#paint2_linear_269_3352)"/>
<defs>
<linearGradient id="paint0_linear_269_3352" x1="63.0172" y1="23.1919" x2="47.7664" y2="59.9845" gradientUnits="userSpaceOnUse">
<stop stop-color="#F0DB92"/>
<stop offset="1" stop-color="#BF9033"/>
</linearGradient>
<linearGradient id="paint1_linear_269_3352" x1="103.803" y1="34.9991" x2="93.5965" y2="59.6195" gradientUnits="userSpaceOnUse">
<stop stop-color="#F0DB92"/>
<stop offset="1" stop-color="#BF9033"/>
</linearGradient>
<linearGradient id="paint2_linear_269_3352" x1="52.0375" y1="86.8769" x2="40.9397" y2="113.642" gradientUnits="userSpaceOnUse">
<stop stop-color="#F0DB92"/>
<stop offset="1" stop-color="#BF9033"/>
</linearGradient>
</defs>
</svg>
